<svg width="109" height="30" viewBox="0 0 109 30" fill="none" xmlns="http://www.w3.org/2000/svg">
<path d="M43.3881 11.7949L39.605 12.3058L42.3111 15.219L39.7983 16.9449L37.9067 13.438L36.0152 16.9449L33.4885 15.219L36.2085 12.3058L32.4254 11.7949L33.4057 9.00593L36.885 10.4971L36.2913 6.53449H39.5221L38.9284 10.4971L42.3802 9.00593L43.3881 11.7949Z" fill="#0B5FFF"/>
<path d="M59.4317 9.04735C58.5481 10.6397 57.7565 12.1355 57.0569 13.5346C56.3574 14.9245 55.7407 16.3006 55.2068 17.6629C54.6729 19.016 54.2173 20.3966 53.8399 21.8049C53.4625 23.204 53.1542 24.7136 52.9149 26.3336H48.3586C48.6163 24.7964 48.9569 23.3145 49.3803 21.8878C49.8037 20.4611 50.2915 19.0804 50.8438 17.7457C51.4053 16.4018 52.022 15.0948 52.6939 13.8245C53.3751 12.5543 54.0931 11.3117 54.8478 10.0967H45.6524V6.53449H59.4317V9.04735Z" fill="#0B5FFF"/>
<path d="M68.6133 26.6788C63.9006 26.6788 61.5442 23.3697 61.5442 16.7516C61.5442 13.3183 62.1793 10.7042 63.4495 8.90928C64.729 7.10518 66.5791 6.20312 68.9999 6.20312C73.6022 6.20312 75.9034 9.56741 75.9034 16.296C75.9034 19.6465 75.2729 22.2146 74.0118 24.0002C72.76 25.7859 70.9605 26.6788 68.6133 26.6788ZM68.8066 9.53059C66.9197 9.53059 65.9762 11.9008 65.9762 16.6412C65.9762 21.1054 66.9013 23.3375 68.7514 23.3375C70.5555 23.3375 71.4576 21.0364 71.4576 16.4341C71.4576 11.8317 70.5739 9.53059 68.8066 9.53059Z" fill="#0B5FFF"/>
<path d="M84.8779 26.6788C80.1651 26.6788 77.8087 23.3697 77.8087 16.7516C77.8087 13.3183 78.4439 10.7042 79.7141 8.90928C80.9935 7.10518 82.8437 6.20312 85.2645 6.20312C89.8668 6.20312 92.1679 9.56741 92.1679 16.296C92.1679 19.6465 91.5374 22.2146 90.2764 24.0002C89.0246 25.7859 87.2251 26.6788 84.8779 26.6788ZM85.0712 9.53059C83.1842 9.53059 82.2408 11.9008 82.2408 16.6412C82.2408 21.1054 83.1658 23.3375 85.016 23.3375C86.8201 23.3375 87.7221 21.0364 87.7221 16.4341C87.7221 11.8317 86.8385 9.53059 85.0712 9.53059Z" fill="#0B5FFF"/>
<path d="M101.142 26.6788C96.4297 26.6788 94.0733 23.3697 94.0733 16.7516C94.0733 13.3183 94.7084 10.7042 95.9786 8.90928C97.2581 7.10518 99.1082 6.20312 101.529 6.20312C106.131 6.20312 108.432 9.56741 108.432 16.296C108.432 19.6465 107.802 22.2146 106.541 24.0002C105.289 25.7859 103.49 26.6788 101.142 26.6788ZM101.336 9.53059C99.4488 9.53059 98.5053 11.9008 98.5053 16.6412C98.5053 21.1054 99.4304 23.3375 101.281 23.3375C103.085 23.3375 103.987 21.0364 103.987 16.4341C103.987 11.8317 103.103 9.53059 101.336 9.53059Z" fill="#0B5FFF"/>
<path d="M1.72572 19.3484C-0.704826 11.9896 3.16557 4.07248 10.411 1.68811C17.6565 -0.696254 25.4435 3.31266 27.874 10.6715C28.8567 13.442 28.9255 16.4547 28.0702 19.2672C27.2149 22.0797 25.4806 24.544 23.1218 26.2984C20.763 28.0528 17.904 29.005 14.9643 29.0151C12.0246 29.0252 9.1591 28.0927 6.78831 26.3546M6.88485 26.4049C4.95385 24.8811 4.65581 23.6134 5.29807 22.396L6.88485 26.4049Z" stroke="#0B5FFF" stroke-miterlimit="10"/>
<path fill-rule="evenodd" clip-rule="evenodd" d="M6.36008 23.3069C8.459 22.5975 9.74353 20.9226 10.2431 18.3829C9.18942 17.6231 9.02151 16.5064 9.74353 15.1379C11.8424 10.2139 13.7902 8.08139 15.5114 8.74045C16.7707 7.6742 17.3416 5.84814 17.2283 3.21191C14.8985 2.75434 13.2361 3.10696 12.2916 4.27396C8.02243 8.74045 5.30643 13.5092 4.08487 18.5886C3.69867 20.1124 3.8078 21.3297 4.36191 22.1903C4.86846 22.795 5.57961 23.1924 6.36008 23.3069Z" fill="#0B5FFF" stroke="#0093C9" stroke-width="0.23" stroke-miterlimit="10"/>
<path fill-rule="evenodd" clip-rule="evenodd" d="M20.003 4.12281C19.4227 3.82784 18.8079 3.60644 18.1728 3.46375C18.5044 5.49549 17.7824 7.82949 16.288 8.94611C17.5053 9.19798 18.7815 9.19798 19.2264 8.69005C19.6423 8.21245 19.9592 7.65707 20.1588 7.0561C20.3584 6.45513 20.4367 5.82051 20.3893 5.18905C20.4048 4.99404 20.3784 4.79797 20.3118 4.61404C20.2452 4.4301 20.1399 4.2626 20.003 4.12281Z" fill="#0B5FFF" stroke="#0093C9" stroke-width="0.23" stroke-miterlimit="10"/>
<path fill-rule="evenodd" clip-rule="evenodd" d="M12.2664 20.0621C11.7926 19.6153 11.2653 19.2289 10.6965 18.9119C10.4404 20.952 9.08869 22.988 7.3382 23.6344C8.43383 24.2263 9.65958 24.5873 10.2263 24.2263C10.7598 23.8857 11.2201 23.4423 11.5805 22.9219C11.9408 22.4016 12.194 21.8147 12.3252 21.1955C12.3958 21.0128 12.4263 20.817 12.4147 20.6215C12.4031 20.426 12.3497 20.2352 12.2581 20.0621H12.2664Z" fill="#0B5FFF" stroke="#0093C9" stroke-width="0.23" stroke-miterlimit="10"/>
</svg>
