<svg width="91" height="71" viewBox="0 0 91 71" fill="none" xmlns="http://www.w3.org/2000/svg">
<path d="M16.5435 70.6473V65.9481C16.5435 64.1463 15.4508 62.9718 13.5778 62.9718C12.6415 62.9718 11.627 63.285 10.9246 64.3033C10.3786 63.4416 9.59834 62.9718 8.42778 62.9718C7.64717 62.9718 6.86727 63.2065 6.24271 64.0682V63.1284H4.604V70.6473H6.24271V66.4961C6.24271 65.1649 6.94512 64.538 8.03783 64.538C9.12983 64.538 9.67654 65.2431 9.67654 66.4961V70.6473H11.3153V66.4961C11.3153 65.1649 12.0952 64.538 13.1097 64.538C14.2024 64.538 14.7484 65.2431 14.7484 66.4961V70.6473H16.5435ZM40.8117 63.1284H38.1588V60.8571H36.5201V63.1284H35.0375V64.6162H36.5198V68.0627C36.5198 69.786 37.2222 70.8039 39.0951 70.8039C39.7975 70.8039 40.5774 70.5691 41.1242 70.2559L40.6556 68.8459C40.1875 69.1591 39.6415 69.2376 39.2512 69.2376C38.4709 69.2376 38.1588 68.7677 38.1588 67.9842V64.6162H40.8117V63.1284ZM54.702 62.9714C53.7657 62.9714 53.1415 63.4416 52.7512 64.0682V63.1284H51.1125V70.6473H52.7512V66.4179C52.7512 65.1649 53.2972 64.4599 54.3117 64.4599C54.6238 64.4599 55.0141 64.5384 55.3262 64.6165L55.7943 63.0503C55.4822 62.9718 55.0141 62.9718 54.702 62.9718V62.9714ZM33.7108 63.7549C32.9302 63.2065 31.8379 62.9718 30.6673 62.9718C28.7947 62.9718 27.5463 63.9115 27.5463 65.3997C27.5463 66.6531 28.4826 67.3577 30.1213 67.5928L30.9016 67.6713C31.76 67.8276 32.2282 68.0627 32.2282 68.4545C32.2282 69.0025 31.604 69.3942 30.5113 69.3942C29.4189 69.3942 28.5605 69.0025 28.0141 68.6111L27.2339 69.8641C28.0923 70.4906 29.2629 70.8039 30.4331 70.8039C32.6181 70.8039 33.8669 69.786 33.8669 68.376C33.8669 67.0445 32.8524 66.3395 31.2915 66.1047L30.5113 66.0262C29.8089 65.9477 29.2629 65.7914 29.2629 65.3215C29.2629 64.7732 29.8089 64.4599 30.6673 64.4599C31.604 64.4599 32.5403 64.8513 33.0084 65.0864L33.7108 63.7549ZM77.254 62.9718C76.3173 62.9718 75.6931 63.4416 75.3028 64.0682V63.1284H73.6641V70.6473H75.3028V66.4179C75.3028 65.1649 75.8492 64.4599 76.8633 64.4599C77.1758 64.4599 77.5661 64.5384 77.8782 64.6165L78.3463 63.0503C78.0342 62.9718 77.5661 62.9718 77.254 62.9718ZM56.3407 66.8878C56.3407 69.1591 57.9012 70.8039 60.3205 70.8039C61.4129 70.8039 62.1931 70.5691 62.9734 69.9426L62.1931 68.6111C61.5689 69.081 60.9447 69.3157 60.2423 69.3157C58.9157 69.3157 57.9794 68.376 57.9794 66.8878C57.9794 65.4782 58.9157 64.538 60.2423 64.4599C60.9447 64.4599 61.5689 64.6947 62.1931 65.1649L62.9734 63.8334C62.1931 63.2065 61.4129 62.9718 60.3205 62.9718C57.9012 62.9718 56.3407 64.6165 56.3407 66.8878ZM71.4794 66.8878V63.1284H69.8407V64.0682C69.2943 63.3635 68.5141 62.9718 67.4996 62.9718C65.3927 62.9718 63.754 64.6165 63.754 66.8878C63.754 69.1591 65.3927 70.8039 67.4996 70.8039C68.5919 70.8039 69.3725 70.4125 69.8407 69.7075V70.6473H71.4794V66.8878ZM65.4706 66.8878C65.4706 65.5563 66.329 64.4599 67.7335 64.4599C69.0601 64.4599 69.9967 65.4782 69.9967 66.8878C69.9967 68.2193 69.0601 69.3157 67.7335 69.3157C66.329 69.2373 65.4706 68.2193 65.4706 66.8878ZM45.8842 62.9718C43.6992 62.9718 42.1383 64.538 42.1383 66.8878C42.1383 69.2376 43.6988 70.8039 45.9621 70.8039C47.0544 70.8039 48.1471 70.4906 49.0056 69.786L48.225 68.6111C47.6008 69.081 46.8205 69.3942 46.0403 69.3942C45.0258 69.3942 44.0113 68.9244 43.777 67.5925H49.3177V66.9663C49.3959 64.538 47.9911 62.9718 45.8839 62.9718H45.8842ZM45.8842 64.3814C46.8984 64.3814 47.6011 65.0083 47.7568 66.1832H43.8552C44.0113 65.1649 44.7137 64.3814 45.8842 64.3814ZM86.5399 66.8878V60.1521H84.9012V64.0682C84.3548 63.3635 83.5746 62.9718 82.5601 62.9718C80.4532 62.9718 78.8145 64.6165 78.8145 66.8878C78.8145 69.1591 80.4532 70.8039 82.5601 70.8039C83.6528 70.8039 84.433 70.4125 84.9012 69.7075V70.6473H86.5399V66.8878ZM80.5314 66.8878C80.5314 65.5563 81.3895 64.4599 82.7943 64.4599C84.1209 64.4599 85.0572 65.4782 85.0572 66.8878C85.0572 68.2193 84.1209 69.3157 82.7943 69.3157C81.3895 69.2373 80.5314 68.2193 80.5314 66.8878ZM25.7512 66.8878V63.1284H24.1125V64.0682C23.5661 63.3635 22.7859 62.9718 21.7714 62.9718C19.6645 62.9718 18.0258 64.6165 18.0258 66.8878C18.0258 69.1591 19.6645 70.8039 21.7714 70.8039C22.8641 70.8039 23.6443 70.4125 24.1125 69.7075V70.6473H25.7512V66.8878ZM19.6645 66.8878C19.6645 65.5563 20.523 64.4599 21.9274 64.4599C23.254 64.4599 24.1907 65.4782 24.1907 66.8878C24.1907 68.2193 23.254 69.3157 21.9274 69.3157C20.523 69.2373 19.6645 68.2193 19.6645 66.8878Z" fill="black"/>
<path d="M33.1646 6.03076H57.7452V50.3615H33.1646V6.03076Z" fill="#FF5F00"/>
<path d="M34.7254 28.1963C34.7254 19.1893 38.9391 11.2002 45.4158 6.03072C40.656 2.27129 34.6475 0 28.0927 0C12.5633 0 0 12.6098 0 28.1963C0 43.7824 12.5633 56.3926 28.0923 56.3926C34.6472 56.3926 40.6557 54.1213 45.4158 50.3615C38.9391 45.2705 34.7254 37.2033 34.7254 28.1963Z" fill="#EB001B"/>
<path d="M90.9099 28.1963C90.9099 43.7824 78.3466 56.3926 62.8176 56.3926C56.2627 56.3926 50.2542 54.1213 45.4941 50.3615C52.049 45.1924 56.1849 37.2033 56.1849 28.1963C56.1849 19.1893 51.9708 11.2002 45.4941 6.03072C50.2539 2.27129 56.2627 0 62.8176 0C78.3466 0 90.9102 12.6883 90.9102 28.1963H90.9099Z" fill="#F79E1B"/>
</svg>
