<svg width="105" height="40" viewBox="0 0 105 40" fill="none" xmlns="http://www.w3.org/2000/svg">
<path fill-rule="evenodd" clip-rule="evenodd" d="M48.0588 25.6278C48.0588 25.1372 48.4192 24.6968 49.5938 24.6968C50.5319 24.707 51.4624 24.8669 52.3501 25.1706L53.1576 23.2485C52.0216 22.7008 50.771 22.433 49.5103 22.4677C47.4448 22.4677 45.3158 23.4287 45.3158 25.6444C45.3158 29.552 50.8652 29.0481 50.8652 30.9202C50.8652 31.6209 50.2211 32.0481 48.8163 32.0481C47.7634 32.0709 46.7159 31.8931 45.7296 31.5242L44.9387 33.5263C45.813 33.9968 46.9409 34.3406 48.8496 34.3406C51.2622 34.3406 53.7049 33.3628 53.7049 30.8368C53.7049 27.1661 48.0588 27.1661 48.0588 25.6411V25.6278ZM55.32 34.1604H58.0596V25.2507H55.32V34.1604ZM63.7024 25.274C61.3899 25.274 59.8883 26.6756 59.8883 28.4341C59.8791 28.8769 59.9765 29.3153 60.1722 29.7125C60.3679 30.1098 60.6562 30.4541 61.0128 30.7166C60.5163 31.2599 60.1983 31.9424 60.1018 32.6721C60.0966 32.9136 60.1529 33.1525 60.2656 33.3662C60.3783 33.5799 60.5436 33.7613 60.7459 33.8934C60.1219 34.2538 59.5412 34.9212 59.5412 35.5619C59.5412 37.1936 60.7292 37.8444 63.6857 37.8444C66.7424 37.8444 68.2106 36.3594 68.2106 34.5374C68.2106 32.6621 66.9226 31.9113 64.4465 31.9113H62.1507L62.1674 31.097C62.6971 31.1829 63.2326 31.2275 63.7691 31.2305C65.7713 31.2305 67.6 30.2027 67.6 28.3774C67.584 28.0555 67.5506 27.7347 67.4999 27.4164H68.8713V25.511L65.9815 25.7212C65.2635 25.4079 64.4856 25.2552 63.7024 25.274ZM64.8436 34.0736C65.5678 34.0736 66.1784 34.2671 66.1784 34.8878C66.1784 35.5085 65.2875 35.9456 64.1762 35.9456C62.6579 35.9456 61.9138 35.5218 61.9138 34.9445C61.913 34.647 61.9744 34.3527 62.094 34.0803L64.8436 34.0736ZM63.7525 29.6888C62.7948 29.6888 62.3176 29.1182 62.3176 28.4041C62.3176 27.5565 62.7948 26.9525 63.7858 26.9525C63.9682 26.9478 64.1496 26.9806 64.3188 27.0487C64.488 27.1169 64.6415 27.219 64.7697 27.3488C64.8979 27.4786 64.9981 27.6332 65.0642 27.8033C65.1303 27.9733 65.1609 28.1551 65.154 28.3374C65.1556 28.5193 65.12 28.6995 65.0494 28.8672C64.9788 29.0348 64.8746 29.1862 64.7434 29.3122C64.6121 29.4381 64.4565 29.5359 64.2861 29.5995C64.1157 29.6631 63.9341 29.6913 63.7525 29.6822V29.6888ZM63.7191 24.1495C64.3755 24.1422 65.0197 23.9716 65.5936 23.6529C66.1674 23.3342 66.6529 22.8775 67.006 22.3242L65.6712 21.1362C65.1106 21.7068 64.4832 22.1373 63.7892 22.1373C63.0951 22.1373 62.4177 21.6802 61.8237 21.1362L60.4055 22.3409C60.753 22.9038 61.2415 23.3663 61.8228 23.6823C62.404 23.9984 63.0577 24.1571 63.7191 24.1428V24.1495ZM74.2372 25.0304C71.3807 25.0304 69.5154 26.8391 69.5154 29.7889C69.5154 32.5753 71.1171 34.3506 74.0903 34.3506C76.8633 34.3506 78.8789 32.7388 78.8789 29.7055C78.8789 26.799 77.4406 25.0238 74.2372 25.0238V25.0304ZM74.2205 32.1815C72.7522 32.1815 72.2884 31.2539 72.2884 29.7222C72.2884 28.274 72.7022 27.1828 74.1904 27.1828C75.6787 27.1828 76.0725 28.274 76.0725 29.7055C76.0725 31.2138 75.7088 32.1749 74.2205 32.1749V32.1815ZM82.9499 26.442V25.2507H80.1903V34.147H82.9499V28.1205C83.4988 27.6248 84.2126 27.3512 84.9521 27.353C85.3572 27.3383 85.7625 27.3708 86.1601 27.4497L86.5205 25.2207C86.118 25.1074 85.7003 25.0578 85.2825 25.0738C84.2447 25.0738 83.4004 25.8714 82.9499 26.442ZM92.4302 32.0614C91.6861 32.0614 91.4291 32.0147 91.4291 31.3606V27.2562H94.2188V25.254H91.4291V23.4287H88.6895V25.254H87.3547V27.2562H88.6895V31.3773C88.6895 34.4073 90.7184 34.3272 92.4536 34.3272C93.1899 34.3134 93.9217 34.2092 94.6326 34.0169L94.3657 31.8846C94.3657 31.8846 93.0476 32.0614 92.4369 32.0614H92.4302ZM103.649 31.7844V27.8268C103.649 25.8246 102.524 25.0405 99.7348 25.0405C98.4838 25.0494 97.2455 25.2928 96.0842 25.7579L96.6314 27.73C97.5106 27.4992 98.4127 27.3672 99.321 27.3363C100.446 27.3363 100.956 27.5665 100.956 28.3374V28.8913H99.3878C97.6058 28.8913 95.5236 29.3485 95.5236 31.5976C95.5236 33.3728 96.6448 34.2671 98.6269 34.2671C99.5758 34.218 100.484 33.8673 101.22 33.2661C101.467 34.0336 102.625 34.2137 103.712 34.2137C103.929 34.2137 104.143 34.2137 104.356 34.2137L104.457 32.1615C103.953 32.1448 103.656 32.0781 103.656 31.7844H103.649ZM100.956 31.8846C100.388 32.0605 99.7988 32.1637 99.2042 32.1916C98.7104 32.1916 98.2032 31.9646 98.2032 31.4441C98.2032 30.7767 98.7971 30.5298 99.6047 30.5131L100.959 30.483L100.956 31.8846Z" fill="#C0C0C0"/>
<path fill-rule="evenodd" clip-rule="evenodd" d="M50.1043 5.85968H45.5761V17.3188H48.3858V14.0786H49.2467C52.7105 14.0786 54.5859 12.1799 54.5859 9.92742C54.5859 7.36798 52.7105 5.85968 50.101 5.85968H50.1043ZM49.3435 11.953H48.3925V8.01535H49.7272C51.2255 8.01535 51.6994 8.84291 51.6994 9.99416C51.7127 11.062 51.0887 11.953 49.3468 11.953H49.3435ZM82.8632 5.85968H79.0557L75.1448 17.3188H78.0346L79.1358 13.9651H82.7831L83.8843 17.3188H86.7774L82.8632 5.85968ZM79.7899 11.9696L80.9578 7.56152L82.1224 11.9696H79.7899ZM57.766 5.85968L53.8584 17.3188H56.7482L57.8494 13.9651H61.4967L62.5979 17.3188H65.491L61.5935 5.85968H57.766ZM58.5068 11.9696L59.6747 7.56152L60.8393 11.9696H58.5068ZM69.1416 8.85626C69.1416 8.36907 69.5054 7.92859 70.68 7.92859C71.6179 7.93814 72.5483 8.09696 73.4363 8.39909L74.2438 6.47701C73.1099 5.93033 71.8616 5.66261 70.6032 5.69617C68.5376 5.69617 66.4087 6.65721 66.4087 8.87295C66.4087 12.7839 71.958 12.2766 71.958 14.152C71.958 14.8528 71.3107 15.2766 69.9091 15.2766C68.8556 15.2988 67.8072 15.1222 66.8191 14.756L66.0283 16.7415C67.0708 17.2759 68.227 17.5507 69.3986 17.5423C69.4891 17.827 69.544 18.1218 69.5621 18.42C69.5621 18.9906 68.7212 19.3176 68.3074 19.5612L69.2484 21.1896C70.2896 20.7658 71.8579 20.0517 71.8579 18.7303C71.8281 18.2707 71.7043 17.8221 71.4942 17.4122H71.4775C73.2895 17.0618 74.7978 16.034 74.7978 14.0519C74.7978 10.3879 69.1483 10.3879 69.1483 8.85626H69.1416Z" fill="#C0C0C0"/>
<path fill-rule="evenodd" clip-rule="evenodd" d="M27.096 5.85645H34.1403L34.1436 17.3022H22.6979V14.7227L29.0181 8.40254L29.3284 8.0922L27.096 5.85645Z" fill="#C0C0C0"/>
<path fill-rule="evenodd" clip-rule="evenodd" d="M19.9984 0L28.0938 8.09211L19.9984 16.1809L18.1764 14.3589V4.98207H15.0163L19.9984 0Z" fill="#C0C0C0"/>
<path fill-rule="evenodd" clip-rule="evenodd" d="M5.85965 5.85645V12.9041L7.78173 10.982L8.09207 10.6717L14.7226 17.3022H17.3021V5.85645H5.85965Z" fill="#C0C0C0"/>
<path fill-rule="evenodd" clip-rule="evenodd" d="M0 20.0015L8.09211 11.9094L16.1842 20.0015L14.3589 21.8269L4.9854 21.8235V24.9836L0 20.0015Z" fill="#C0C0C0"/>
<path fill-rule="evenodd" clip-rule="evenodd" d="M5.85965 34.1437V22.698H17.3021V25.2808L10.9819 31.601L10.6715 31.908L10.9819 32.2183L12.9073 34.1437H5.85965Z" fill="#C0C0C0"/>
<path fill-rule="evenodd" clip-rule="evenodd" d="M20.0017 40L11.9096 31.9079L20.0017 23.8158L21.8237 25.6411V35.0179H24.9871L20.0017 40Z" fill="#C0C0C0"/>
<path fill-rule="evenodd" clip-rule="evenodd" d="M34.1436 34.1437H22.6979V22.698H25.2774L31.6009 29.0215L31.9079 29.3285L32.2182 29.0215L34.1403 27.0961L34.1436 34.1437Z" fill="#C0C0C0"/>
<path fill-rule="evenodd" clip-rule="evenodd" d="M31.908 28.0939L23.8192 20.0018L25.6412 18.1765H35.018L35.0147 15.0164L40.0001 20.0018L31.908 28.0939Z" fill="#C0C0C0"/>
</svg>
