<svg width="97" height="33" viewBox="0 0 97 33" fill="none" xmlns="http://www.w3.org/2000/svg">
<path d="M50.1661 10.5074C50.1107 15.0861 54.0548 17.641 57.0258 19.1602C60.0782 20.7188 61.1036 21.7183 61.0914 23.1122C61.0687 25.2453 58.6566 26.1868 56.3994 26.2234C52.4615 26.2874 50.1717 25.1078 48.3515 24.2156L46.9328 31.1809C48.7592 32.064 52.1409 32.8341 55.6477 32.8679C63.8794 32.8679 69.2648 28.6042 69.294 21.9934C69.3262 13.6035 58.2345 13.1391 58.3103 9.38902C58.3364 8.25191 59.3704 7.03846 61.6363 6.72993C62.7579 6.57408 65.8539 6.4548 69.3641 8.15092L70.7418 1.41176C68.8541 0.690536 66.4279 -8.01086e-05 63.4073 -8.01086e-05C55.6594 -8.01086e-05 50.21 4.32173 50.1661 10.5074ZM83.98 0.580402C82.4769 0.580402 81.2102 1.50042 80.6449 2.91227L68.8863 32.3729H77.112L78.7488 27.6261H88.8005L89.75 32.3729H97L90.6734 0.580402H83.98ZM85.1308 9.16875L87.5046 21.1072H81.0033L85.1308 9.16875ZM40.1929 0.580799L33.709 32.3725H41.5475L48.0283 0.580006H40.1929V0.580799ZM28.5972 0.580006L20.4386 22.2197L17.1383 3.82037C16.7511 1.76641 15.2218 0.580402 13.5235 0.580402H0.186801L0 1.5036C2.73798 2.12703 5.8488 3.13253 7.73348 4.20841C8.88687 4.86563 9.21576 5.44015 9.59466 7.00188L15.8455 32.3729H24.1287L36.8282 0.580402H28.5972" fill="url(#paint0_linear)"/>
<defs>
<linearGradient id="paint0_linear" x1="44.5948" y1="33.5273" x2="45.593" y2="-0.225958" gradientUnits="userSpaceOnUse">
<stop stop-color="#222357"/>
<stop offset="1" stop-color="#254AA5"/>
</linearGradient>
</defs>
</svg>
