<svg width="191" height="48" viewBox="0 0 191 48" fill="none" xmlns="http://www.w3.org/2000/svg">
<path fill-rule="evenodd" clip-rule="evenodd" d="M110.406 11.5625C110.406 10.8704 110.921 10.2336 112.6 10.2336C113.94 10.249 115.269 10.4768 116.538 10.9084L117.694 8.16403C116.072 7.37492 114.285 6.98681 112.482 7.03236C109.533 7.03236 106.491 8.41666 106.491 11.5694C106.491 17.1586 114.42 16.4353 114.42 19.1139C114.42 20.1141 113.5 20.7197 111.492 20.7197C109.988 20.7521 108.491 20.4996 107.08 19.9756L105.948 22.8135C107.201 23.5056 108.803 23.9798 111.541 23.9798C114.984 23.9798 118.462 22.5955 118.462 18.9755C118.462 13.7359 110.395 13.7359 110.395 11.5487L110.406 11.5625ZM120.777 23.7237H124.695V11.0261H120.788L120.777 23.7237ZM132.755 11.0365C129.454 11.0365 127.308 13.0403 127.308 15.5528C127.308 16.9717 128.038 18.2764 128.91 18.8128C128.488 19.2316 127.637 20.5432 127.613 21.6057C127.607 21.9485 127.688 22.2872 127.849 22.5899C128.01 22.8926 128.245 23.1494 128.533 23.3361C127.637 23.8482 126.803 24.8034 126.803 25.7101C126.803 28.0392 128.502 28.9702 132.724 28.9702C137.092 28.9702 139.189 26.8522 139.189 24.2462C139.189 21.5676 137.348 20.4982 133.811 20.4982H130.53L130.554 19.3319C131.311 19.4526 132.076 19.5151 132.842 19.5188C135.721 19.5188 138.317 18.0515 138.317 15.4455C138.293 14.9819 138.246 14.5199 138.175 14.0612H140.168V11.3376L136.04 11.6386C135.005 11.2073 133.889 11.0065 132.769 11.0503L132.755 11.0365ZM134.382 23.606C135.42 23.606 136.296 23.8863 136.296 24.7723C136.296 25.6582 135.019 26.2846 133.416 26.2846C131.246 26.2846 130.184 25.679 130.184 24.8415C130.183 24.4161 130.272 23.9953 130.443 23.606H134.382ZM132.828 17.3455C131.444 17.3455 130.776 16.5287 130.776 15.5043C130.776 14.2965 131.468 13.4279 132.873 13.4279C133.134 13.4201 133.393 13.466 133.636 13.5628C133.878 13.6596 134.098 13.8051 134.282 13.9904C134.465 14.1758 134.609 14.3969 134.703 14.64C134.798 14.8832 134.842 15.1432 134.832 15.404C134.835 15.6645 134.785 15.9229 134.685 16.1637C134.586 16.4046 134.439 16.6228 134.253 16.8054C134.067 16.988 133.847 17.1312 133.604 17.2264C133.361 17.3216 133.102 17.3668 132.842 17.3593L132.828 17.3455ZM132.793 9.4549C133.731 9.44385 134.651 9.19951 135.47 8.74394C136.289 8.28837 136.982 7.63591 137.486 6.84548L135.576 5.14624C134.773 5.96298 133.88 6.58938 132.887 6.58938C131.894 6.58938 130.928 5.93876 130.08 5.14624L128.052 6.87663C128.549 7.68217 129.248 8.34382 130.08 8.79606C130.912 9.24829 131.847 9.4754 132.793 9.4549ZM147.823 10.7112C143.74 10.7112 141.075 13.2964 141.075 17.5081C141.075 21.488 143.362 24.0282 147.612 24.0282C151.571 24.0282 154.451 21.7233 154.451 17.3939C154.451 13.2375 152.399 10.7008 147.823 10.7008V10.7112ZM147.782 20.9204C145.685 20.9204 145.013 19.595 145.013 17.4043C145.013 15.3278 145.602 13.7739 147.727 13.7739C149.851 13.7739 150.419 15.3348 150.419 17.3835C150.443 19.5465 149.921 20.9204 147.782 20.9204ZM160.265 12.7253V11.0261H156.337V23.7375H160.279V15.1236C161.061 14.4192 162.077 14.0296 163.13 14.03C163.711 14.0085 164.291 14.0549 164.861 14.1685L165.38 10.9811C164.805 10.8192 164.208 10.7479 163.611 10.77C162.12 10.77 160.933 11.9121 160.279 12.7253H160.265ZM173.81 20.7578C172.748 20.7578 172.395 20.6886 172.395 19.7576V13.8743H176.382V11.0122H172.409V8.41667H168.491V11.0226H166.605V13.8847H168.491V19.768C168.491 24.1009 171.395 23.9832 173.873 23.9832C174.925 23.9636 175.971 23.8148 176.987 23.5402L176.61 20.4913C176.61 20.4913 174.696 20.7578 173.824 20.7578H173.81ZM189.841 20.3632V14.7049C189.841 11.8394 188.235 10.725 184.248 10.725C182.461 10.7405 180.693 11.0927 179.036 11.7632L179.815 14.5803C181.072 14.2516 182.361 14.0635 183.66 14.0197C185.262 14.0197 185.992 14.345 185.992 15.4628V16.2553H183.774C181.227 16.2553 178.237 16.9059 178.237 20.1175C178.237 22.6577 179.839 23.959 182.67 23.959C184.085 23.959 185.439 23.2392 186.376 22.5159C186.723 23.6129 188.38 23.869 189.938 23.869C190.246 23.869 190.55 23.869 190.858 23.8448L191 20.9101C190.277 20.8755 189.855 20.782 189.855 20.3632H189.841ZM185.992 20.5017C185.181 20.7533 184.342 20.9021 183.494 20.9447C182.784 20.9447 182.054 20.6194 182.054 19.8718C182.054 18.9409 182.905 18.5671 184.058 18.5463L185.992 18.4979V20.5017Z" fill="#0093C9"/>
<path fill-rule="evenodd" clip-rule="evenodd" d="M45.8414 7.13635H39.387V23.5127H43.4015V18.8822H44.6232C49.5721 18.8822 52.2369 16.169 52.2369 12.9504C52.2369 9.29241 49.5582 7.13635 45.8275 7.13635H45.8414ZM44.7478 15.8471H43.3877V10.2164H45.343C47.4783 10.2164 48.1601 11.4 48.1601 13.0439C48.1428 14.5701 47.2499 15.8471 44.7616 15.8471H44.7478ZM92.6552 7.13635H87.2183L81.6327 23.5127H85.7648L87.336 18.7195H92.5479L94.1226 23.5127H98.2513L92.6552 7.13635ZM88.2566 15.8679L89.9247 9.56927L91.5928 15.8679H88.2566ZM56.8016 7.13635L51.2263 23.5127H55.3585L56.9297 18.7195H62.1416L63.7128 23.5127H67.838L62.2489 7.13635H56.8016ZM57.8606 15.8679L59.5253 9.56927L61.1933 15.8679H57.8606ZM73.0569 11.4173C73.0569 10.7252 73.5725 10.0918 75.251 10.0918C76.5923 10.111 77.9219 10.3447 79.1894 10.784L80.3453 8.03961C78.7218 7.25328 76.9331 6.86872 75.1299 6.91832C72.1813 6.91832 69.1393 8.30263 69.1393 11.4589C69.1393 17.048 77.0644 16.3247 77.0644 19.0033C77.0644 20.0035 76.1439 20.6091 74.1401 20.6091C72.6338 20.6312 71.1369 20.3694 69.7276 19.8374L68.5959 22.6752C69.7241 23.2843 71.1431 23.7377 73.4099 23.8207C73.5409 24.2279 73.62 24.65 73.6452 25.077C73.6452 25.8903 72.4443 26.354 71.8525 26.7035L73.1953 29.0327C74.6834 28.427 76.926 27.4026 76.926 25.5165C76.8835 24.8596 76.7056 24.2186 76.4034 23.6338H76.3792C78.9713 23.132 81.1239 21.6681 81.1239 18.8338C81.1239 13.608 73.0569 13.608 73.0569 11.4173Z" fill="#007853"/>
<path fill-rule="evenodd" clip-rule="evenodd" d="M21.4534 4.63745H27.0321V13.6978H17.9718V11.6559L22.9761 6.65162L23.2218 6.40591L21.4534 4.63745Z" fill="#007853"/>
<path fill-rule="evenodd" clip-rule="evenodd" d="M15.8365 0L22.2424 6.40589L15.8365 12.8118L14.3899 11.3686V3.94528H11.8912L15.8365 0Z" fill="#0093C9"/>
<path fill-rule="evenodd" clip-rule="evenodd" d="M4.63745 4.63745V10.2162L6.16019 8.69348L6.40591 8.45122L11.6559 13.6978H13.7012L13.6978 4.63745H4.63745Z" fill="#007853"/>
<path fill-rule="evenodd" clip-rule="evenodd" d="M0 15.8363L6.40589 9.43042L12.8152 15.8363L11.3686 17.2794H3.94528V19.7816L0 15.8363Z" fill="#0093C9"/>
<path fill-rule="evenodd" clip-rule="evenodd" d="M4.63745 27.032V17.9717H13.6978V20.017L8.69348 25.0213L8.45122 25.2635L8.69348 25.5092L10.2197 27.032H4.63745Z" fill="#007853"/>
<path fill-rule="evenodd" clip-rule="evenodd" d="M15.8365 31.6694L9.4306 25.2636L15.8365 18.8577L17.2796 20.3008V27.7242H19.7818L15.8365 31.6694Z" fill="#0093C9"/>
<path fill-rule="evenodd" clip-rule="evenodd" d="M27.0321 27.032H17.9718V17.9717H20.0137L25.018 22.976L25.2637 23.2217L25.5094 22.976L27.0321 21.4532V27.032Z" fill="#007853"/>
<path fill-rule="evenodd" clip-rule="evenodd" d="M25.2636 22.2425L18.8578 15.8366L20.3009 14.39H27.7243V11.8914L31.6695 15.8366L25.2636 22.2425Z" fill="#0093C9"/>
<path d="M46.7892 44.3186H45.5711L44.1095 41.8704C43.9755 41.643 43.8456 41.4501 43.7197 41.2918C43.5939 41.1294 43.464 40.9974 43.33 40.8959C43.2 40.7944 43.0579 40.7214 42.9037 40.6767C42.7534 40.628 42.5829 40.6036 42.3921 40.6036H41.5516V44.3186H40.5285V35.5853H43.1351C43.5167 35.5853 43.8679 35.6341 44.1887 35.7315C44.5135 35.8249 44.7936 35.969 45.0291 36.1639C45.2687 36.3588 45.4554 36.6024 45.5894 36.8947C45.7234 37.183 45.7904 37.522 45.7904 37.9118C45.7904 38.2163 45.7437 38.4964 45.6503 38.7522C45.561 39.0039 45.4311 39.2293 45.2605 39.4282C45.0941 39.6272 44.8911 39.7977 44.6515 39.9398C44.416 40.0778 44.1501 40.1854 43.8537 40.2626V40.2869C43.9999 40.3519 44.1258 40.427 44.2313 40.5123C44.3409 40.5935 44.4445 40.6909 44.5419 40.8046C44.6394 40.9183 44.7348 41.0482 44.8281 41.1944C44.9256 41.3365 45.0332 41.5029 45.1509 41.6937L46.7892 44.3186ZM41.5516 36.511V39.6779H42.9402C43.196 39.6779 43.4315 39.6393 43.6467 39.5622C43.8659 39.4851 44.0547 39.3754 44.213 39.2333C44.3714 39.0872 44.4952 38.9105 44.5845 38.7035C44.6739 38.4924 44.7185 38.2569 44.7185 37.997C44.7185 37.5301 44.5663 37.1667 44.2618 36.9069C43.9613 36.643 43.5249 36.511 42.9524 36.511H41.5516Z" fill="#0093C9"/>
<path d="M52.3251 44.3186H51.3263V43.3442H51.302C50.8675 44.0912 50.2281 44.4648 49.3836 44.4648C48.7624 44.4648 48.2752 44.3003 47.9219 43.9715C47.5728 43.6426 47.3982 43.2061 47.3982 42.6621C47.3982 41.4968 48.0843 40.8188 49.4567 40.628L51.3263 40.3661C51.3263 39.3064 50.898 38.7766 50.0413 38.7766C49.2902 38.7766 48.6122 39.0324 48.0072 39.5439V38.5208C48.6203 38.131 49.3267 37.9361 50.1266 37.9361C51.5923 37.9361 52.3251 38.7116 52.3251 40.2626V44.3186ZM51.3263 41.1639L49.8221 41.371C49.3592 41.4359 49.01 41.5516 48.7746 41.7181C48.5391 41.8805 48.4213 42.1708 48.4213 42.589C48.4213 42.8935 48.5289 43.1432 48.7441 43.3381C48.9634 43.5289 49.2537 43.6243 49.615 43.6243C50.1103 43.6243 50.5184 43.4518 50.8391 43.1067C51.1639 42.7575 51.3263 42.317 51.3263 41.7851V41.1639Z" fill="#0093C9"/>
<path d="M59.3836 44.3186H58.3848V40.7254C58.3848 39.4262 57.9017 38.7766 56.9354 38.7766C56.4481 38.7766 56.0381 38.9654 55.7051 39.343C55.3722 39.7165 55.2058 40.1976 55.2058 40.7863V44.3186H54.207V35.0859H55.2058V39.1176H55.2301C55.7092 38.33 56.3913 37.9361 57.2764 37.9361C58.6812 37.9361 59.3836 38.7827 59.3836 40.4757V44.3186Z" fill="#0093C9"/>
<path d="M65.7356 44.3186H64.7368V43.3442H64.7125C64.278 44.0912 63.6386 44.4648 62.7941 44.4648C62.1729 44.4648 61.6857 44.3003 61.3324 43.9715C60.9833 43.6426 60.8087 43.2061 60.8087 42.6621C60.8087 41.4968 61.4948 40.8188 62.8672 40.628L64.7368 40.3661C64.7368 39.3064 64.3085 38.7766 63.4518 38.7766C62.7007 38.7766 62.0227 39.0324 61.4177 39.5439V38.5208C62.0308 38.131 62.7372 37.9361 63.5371 37.9361C65.0028 37.9361 65.7356 38.7116 65.7356 40.2626V44.3186ZM64.7368 41.1639L63.2326 41.371C62.7697 41.4359 62.4206 41.5516 62.1851 41.7181C61.9496 41.8805 61.8318 42.1708 61.8318 42.589C61.8318 42.8935 61.9394 43.1432 62.1546 43.3381C62.3739 43.5289 62.6642 43.6243 63.0255 43.6243C63.5208 43.6243 63.9289 43.4518 64.2496 43.1067C64.5744 42.7575 64.7368 42.317 64.7368 41.7851V41.1639Z" fill="#0093C9"/>
<path d="M70.5103 44.2577C70.2748 44.3876 69.9642 44.4526 69.5785 44.4526C68.4863 44.4526 67.9403 43.8436 67.9403 42.6255V38.9349H66.8684V38.0823H67.9403V36.5598L68.939 36.237V38.0823H70.5103V38.9349H68.939V42.4489C68.939 42.8671 69.0101 43.1655 69.1522 43.3442C69.2943 43.5228 69.5298 43.6121 69.8587 43.6121C70.1104 43.6121 70.3276 43.5431 70.5103 43.4051V44.2577Z" fill="#0093C9"/>
<path d="M72.8428 44.3186H71.844V35.0859H72.8428V44.3186Z" fill="#0093C9"/>
<path d="M75.8635 44.3186H74.8648V38.0823H75.8635V44.3186Z" fill="#0093C9"/>
<path d="M83.2083 43.8192C83.2083 46.1091 82.112 47.2541 79.9196 47.2541C79.1482 47.2541 78.4742 47.1079 77.8976 46.8156V45.8168C78.6 46.2065 79.27 46.4014 79.9074 46.4014C81.4421 46.4014 82.2095 45.5854 82.2095 43.9532V43.2711H82.1851C81.7101 44.0669 80.9955 44.4648 80.0414 44.4648C79.2659 44.4648 78.6406 44.1887 78.1656 43.6365C77.6946 43.0803 77.4592 42.3352 77.4592 41.4014C77.4592 40.3417 77.7129 39.4993 78.2204 38.874C78.732 38.2488 79.4303 37.9361 80.3154 37.9361C81.1559 37.9361 81.7791 38.2731 82.1851 38.9471H82.2095V38.0823H83.2083V43.8192ZM82.2095 41.4989V40.5793C82.2095 40.0839 82.041 39.6596 81.704 39.3064C81.3711 38.9532 80.9549 38.7766 80.4555 38.7766C79.8384 38.7766 79.3552 39.0019 79.0061 39.4526C78.6569 39.8992 78.4823 40.5265 78.4823 41.3344C78.4823 42.0287 78.6488 42.5849 78.9817 43.0031C79.3187 43.4173 79.7633 43.6243 80.3154 43.6243C80.8757 43.6243 81.3305 43.4254 81.6796 43.0275C82.0329 42.6296 82.2095 42.1201 82.2095 41.4989ZM82.1607 35.3661C82.1201 35.8249 81.9395 36.1964 81.6187 36.4806C81.302 36.7607 80.9163 36.9008 80.4616 36.9008C79.9866 36.9008 79.5988 36.7607 79.2984 36.4806C78.9979 36.2004 78.8376 35.8289 78.8173 35.3661H79.4263C79.475 35.9954 79.8242 36.3101 80.4738 36.3101C80.7499 36.3101 80.9854 36.2248 81.1802 36.0543C81.3792 35.8837 81.499 35.6544 81.5396 35.3661H82.1607Z" fill="#0093C9"/>
<path d="M86.229 44.3186H85.2302V38.0823H86.229V44.3186Z" fill="#0093C9"/>
<path d="M93.4275 44.3186H92.4287V40.762C92.4287 39.4384 91.9456 38.7766 90.9793 38.7766C90.4799 38.7766 90.0658 38.9654 89.7369 39.343C89.4121 39.7165 89.2497 40.1895 89.2497 40.762V44.3186H88.2509V38.0823H89.2497V39.1176H89.274C89.745 38.33 90.4271 37.9361 91.3203 37.9361C92.0024 37.9361 92.5241 38.1574 92.8855 38.6C93.2468 39.0384 93.4275 39.6738 93.4275 40.5062V44.3186Z" fill="#0093C9"/>
<path d="M96.3142 44.3186H95.3155V38.0823H96.3142V44.3186Z" fill="#0093C9"/>
<path d="M102.685 38.3685L98.9939 43.466H102.648V44.3186H97.5262V44.008L101.217 38.9349H97.8733V38.0823H102.685V38.3685Z" fill="#0093C9"/>
<path d="M108.44 44.3186H107.441V43.3442H107.417C106.982 44.0912 106.343 44.4648 105.498 44.4648C104.877 44.4648 104.39 44.3003 104.037 43.9715C103.687 43.6426 103.513 43.2061 103.513 42.6621C103.513 41.4968 104.199 40.8188 105.571 40.628L107.441 40.3661C107.441 39.3064 107.013 38.7766 106.156 38.7766C105.405 38.7766 104.727 39.0324 104.122 39.5439V38.5208C104.735 38.131 105.441 37.9361 106.241 37.9361C107.707 37.9361 108.44 38.7116 108.44 40.2626V44.3186ZM107.441 41.1639L105.937 41.371C105.474 41.4359 105.125 41.5516 104.889 41.7181C104.654 41.8805 104.536 42.1708 104.536 42.589C104.536 42.8935 104.644 43.1432 104.859 43.3381C105.078 43.5289 105.368 43.6243 105.73 43.6243C106.225 43.6243 106.633 43.4518 106.954 43.1067C107.279 42.7575 107.441 42.317 107.441 41.7851V41.1639Z" fill="#0093C9"/>
<path d="M119.579 35.8289L114.463 43.3929H119.457V44.3186H112.934V44.0324L118.007 36.511H113.342V35.5853H119.579V35.8289Z" fill="#0093C9"/>
<path d="M120.346 40.9507H124.749C124.733 40.2565 124.546 39.7205 124.189 39.343C123.832 38.9654 123.34 38.7766 122.715 38.7766C122.009 38.7766 121.363 39.008 120.778 39.4708V38.533C121.322 38.1351 122.047 37.9361 122.953 37.9361C123.834 37.9361 124.526 38.2183 125.029 38.7827C125.533 39.347 125.784 40.1448 125.784 41.1761C125.784 42.1586 125.508 42.9524 124.956 43.5573C124.408 44.1623 123.728 44.4648 122.916 44.4648C122.092 44.4648 121.456 44.1988 121.01 43.667C120.567 43.1351 120.346 42.4043 120.346 41.4745V40.9507ZM124.737 41.7973H121.369C121.377 42.3698 121.515 42.8184 121.783 43.1432C122.051 43.464 122.433 43.6243 122.928 43.6243C123.399 43.6243 123.799 43.4558 124.128 43.1188C124.461 42.7819 124.664 42.3413 124.737 41.7973Z" fill="#0093C9"/>
<path d="M136.241 44.3186H135.242V40.7376C135.242 40.0474 135.135 39.548 134.92 39.2394C134.709 38.9309 134.351 38.7766 133.848 38.7766C133.422 38.7766 133.058 38.9715 132.758 39.3612C132.461 39.751 132.313 40.2179 132.313 40.762V44.3186H131.314V40.6158C131.314 39.3896 130.841 38.7766 129.895 38.7766C129.457 38.7766 129.095 38.9613 128.811 39.3308C128.527 39.6962 128.385 40.1732 128.385 40.762V44.3186H127.386V38.0823H128.385V39.0689H128.409C128.852 38.3137 129.497 37.9361 130.346 37.9361C130.772 37.9361 131.144 38.0559 131.46 38.2954C131.777 38.5309 131.994 38.8415 132.112 39.2272C132.575 38.3665 133.265 37.9361 134.183 37.9361C135.555 37.9361 136.241 38.7827 136.241 40.4757V44.3186Z" fill="#0093C9"/>
<path d="M142.593 44.3186H141.594V43.3442H141.57C141.136 44.0912 140.496 44.4648 139.652 44.4648C139.031 44.4648 138.543 44.3003 138.19 43.9715C137.841 43.6426 137.666 43.2061 137.666 42.6621C137.666 41.4968 138.353 40.8188 139.725 40.628L141.594 40.3661C141.594 39.3064 141.166 38.7766 140.309 38.7766C139.558 38.7766 138.88 39.0324 138.275 39.5439V38.5208C138.888 38.131 139.595 37.9361 140.395 37.9361C141.86 37.9361 142.593 38.7116 142.593 40.2626V44.3186ZM141.594 41.1639L140.09 41.371C139.627 41.4359 139.278 41.5516 139.043 41.7181C138.807 41.8805 138.689 42.1708 138.689 42.589C138.689 42.8935 138.797 43.1432 139.012 43.3381C139.232 43.5289 139.522 43.6243 139.883 43.6243C140.378 43.6243 140.787 43.4518 141.107 43.1067C141.432 42.7575 141.594 42.317 141.594 41.7851V41.1639Z" fill="#0093C9"/>
<path d="M149.652 44.3186H148.653V40.762C148.653 39.4384 148.17 38.7766 147.204 38.7766C146.704 38.7766 146.29 38.9654 145.961 39.343C145.636 39.7165 145.474 40.1895 145.474 40.762V44.3186H144.475V38.0823H145.474V39.1176H145.498C145.969 38.33 146.651 37.9361 147.545 37.9361C148.227 37.9361 148.748 38.1574 149.11 38.6C149.471 39.0384 149.652 39.6738 149.652 40.5062V44.3186Z" fill="#0093C9"/>
<path d="M151.028 40.9507H155.431C155.415 40.2565 155.228 39.7205 154.871 39.343C154.514 38.9654 154.022 38.7766 153.397 38.7766C152.691 38.7766 152.045 39.008 151.461 39.4708V38.533C152.005 38.1351 152.729 37.9361 153.635 37.9361C154.516 37.9361 155.208 38.2183 155.711 38.7827C156.215 39.347 156.467 40.1448 156.467 41.1761C156.467 42.1586 156.191 42.9524 155.638 43.5573C155.09 44.1623 154.41 44.4648 153.598 44.4648C152.774 44.4648 152.139 44.1988 151.692 43.667C151.249 43.1351 151.028 42.4043 151.028 41.4745V40.9507ZM155.419 41.7973H152.051C152.059 42.3698 152.197 42.8184 152.465 43.1432C152.733 43.464 153.115 43.6243 153.61 43.6243C154.081 43.6243 154.481 43.4558 154.81 43.1188C155.143 42.7819 155.346 42.3413 155.419 41.7973Z" fill="#0093C9"/>
<path d="M160.961 44.2577C160.726 44.3876 160.415 44.4526 160.029 44.4526C158.937 44.4526 158.391 43.8436 158.391 42.6255V38.9349H157.319V38.0823H158.391V36.5598L159.39 36.237V38.0823H160.961V38.9349H159.39V42.4489C159.39 42.8671 159.461 43.1655 159.603 43.3442C159.745 43.5228 159.981 43.6121 160.31 43.6121C160.561 43.6121 160.778 43.5431 160.961 43.4051V44.2577Z" fill="#0093C9"/>
</svg>
